REM DIRINDEX 1\2,1\3,1\4,1\5
REM DIRNAME "folder01","folder02","folder03","folder04","folder05"
TITLE ""
FILE "1Q_t_0979-0988.mp3" MP3
  TRACK 01 AUDIO
    TITLE "0:"
    INDEX 01 00:00:00
  TRACK 02 AUDIO
    TITLE "2:cjc172_3892"
    INDEX 01 00:00:08
  TRACK 03 AUDIO
    TITLE "0:"
    INDEX 01 00:01:29
  TRACK 04 AUDIO
    TITLE "3:cjc172_3893"
    INDEX 01 00:01:74
  TRACK 05 AUDIO
    TITLE "0:"
    INDEX 01 00:03:32
  TRACK 06 AUDIO
    TITLE "4:cjc172_3894"
    INDEX 01 00:03:42
  TRACK 07 AUDIO
    TITLE "0:"
    INDEX 01 00:06:11
  TRACK 08 AUDIO
    TITLE "5:cjc172_3895"
    INDEX 01 00:06:19
  TRACK 09 AUDIO
    TITLE "0:"
    INDEX 01 00:10:75
  TRACK 10 AUDIO
    TITLE "3:cjc172_3896"
    INDEX 01 00:11:47
  TRACK 11 AUDIO
    TITLE "0:"
    INDEX 01 00:12:53
  TRACK 12 AUDIO
    TITLE "4:cjc172_3897"
    INDEX 01 00:12:62
  TRACK 13 AUDIO
    TITLE "0:"
    INDEX 01 00:15:53
  TRACK 14 AUDIO
    TITLE "5:cjc172_3898"
    INDEX 01 00:15:61
  TRACK 15 AUDIO
    TITLE "0:"
    INDEX 01 00:21:54
  TRACK 16 AUDIO
    TITLE "3:cjc172_3899"
    INDEX 01 00:22:26
  TRACK 17 AUDIO
    TITLE "0:"
    INDEX 01 00:23:45
  TRACK 18 AUDIO
    TITLE "4:cjc172_3900"
    INDEX 01 00:23:52
  TRACK 19 AUDIO
    TITLE "0:"
    INDEX 01 00:26:10
  TRACK 20 AUDIO
    TITLE "5:cjc172_3901"
    INDEX 01 00:26:16
  TRACK 21 AUDIO
    TITLE "0:"
    INDEX 01 00:31:42
  TRACK 22 AUDIO
    TITLE "3:cjc172_3902"
    INDEX 01 00:32:12
  TRACK 23 AUDIO
    TITLE "0:"
    INDEX 01 00:33:12
  TRACK 24 AUDIO
    TITLE "4:cjc172_3903"
    INDEX 01 00:33:22
  TRACK 25 AUDIO
    TITLE "0:"
    INDEX 01 00:35:24
  TRACK 26 AUDIO
    TITLE "5:cjc172_3904"
    INDEX 01 00:35:32
  TRACK 27 AUDIO
    TITLE "0:"
    INDEX 01 00:40:41
  TRACK 28 AUDIO
    TITLE "3:cjc172_3905"
    INDEX 01 00:41:13
  TRACK 29 AUDIO
    TITLE "0:"
    INDEX 01 00:42:32
  TRACK 30 AUDIO
    TITLE "4:cjc172_3906"
    INDEX 01 00:42:42
  TRACK 31 AUDIO
    TITLE "0:"
    INDEX 01 00:45:62
  TRACK 32 AUDIO
    TITLE "5:cjc172_3907"
    INDEX 01 00:45:70
  TRACK 33 AUDIO
    TITLE "0:"
    INDEX 01 00:51:02
  TRACK 34 AUDIO
    TITLE "3:cjc172_3908"
    INDEX 01 00:51:49
  TRACK 35 AUDIO
    TITLE "0:"
    INDEX 01 00:52:66
  TRACK 36 AUDIO
    TITLE "4:cjc172_3909"
    INDEX 01 00:53:03
  TRACK 37 AUDIO
    TITLE "0:"
    INDEX 01 00:56:07
  TRACK 38 AUDIO
    TITLE "5:cjc172_3910"
    INDEX 01 00:56:13
  TRACK 39 AUDIO
    TITLE "0:"
    INDEX 01 01:01:04
  TRACK 40 AUDIO
    TITLE "3:cjc172_3911"
    INDEX 01 01:01:49
  TRACK 41 AUDIO
    TITLE "0:"
    INDEX 01 01:02:54
  TRACK 42 AUDIO
    TITLE "4:cjc172_3912"
    INDEX 01 01:02:64
  TRACK 43 AUDIO
    TITLE "0:"
    INDEX 01 01:05:31
  TRACK 44 AUDIO
    TITLE "5:cjc172_3913"
    INDEX 01 01:05:37
  TRACK 45 AUDIO
    TITLE "0:"
    INDEX 01 01:09:31
  TRACK 46 AUDIO
    TITLE "3:cjc172_3914"
    INDEX 01 01:10:01
  TRACK 47 AUDIO
    TITLE "0:"
    INDEX 01 01:11:36
  TRACK 48 AUDIO
    TITLE "4:cjc172_3915"
    INDEX 01 01:11:46
  TRACK 49 AUDIO
    TITLE "0:"
    INDEX 01 01:13:05
  TRACK 50 AUDIO
    TITLE "5:cjc172_3916"
    INDEX 01 01:13:13
  TRACK 51 AUDIO
    TITLE "0:"
    INDEX 01 01:18:08
  TRACK 52 AUDIO
    TITLE "3:cjc172_3917"
    INDEX 01 01:18:55
  TRACK 53 AUDIO
    TITLE "0:"
    INDEX 01 01:19:67
  TRACK 54 AUDIO
    TITLE "4:cjc172_3918"
    INDEX 01 01:20:01
  TRACK 55 AUDIO
    TITLE "0:"
    INDEX 01 01:21:22
  TRACK 56 AUDIO
    TITLE "5:cjc172_3919"
    INDEX 01 01:21:28
  TRACK 57 AUDIO
    TITLE "0:"
    INDEX 01 01:25:34
  TRACK 58 AUDIO
    TITLE "3:cjc172_3920"
    INDEX 01 01:26:06
  TRACK 59 AUDIO
    TITLE "0:"
    INDEX 01 01:27:27
  TRACK 60 AUDIO
    TITLE "4:cjc172_3921"
    INDEX 01 01:27:33
  TRACK 61 AUDIO
    TITLE "0:"
    INDEX 01 01:29:63
  TRACK 62 AUDIO
    TITLE "5:cjc172_3922"
    INDEX 01 01:29:71
  TRACK 63 AUDIO
    TITLE "0:"
    INDEX 01 01:34:11
